<svg fill="none" xmlns="http://www.w3.org/2000/svg" width="25" height="25" viewBox="0 0 25 24"><path fill-rule="evenodd" clip-rule="evenodd" d="M17.052 22.131c-1.44-.053-5.521-.617-9.795-4.89-4.273-4.274-4.836-8.353-4.89-9.794-.08-2.196 1.602-4.33 3.545-5.162a1.47 1.47 0 0 1 1.445.159c1.6 1.166 2.704 2.93 3.652 4.317a1.504 1.504 0 0 1-.256 1.986l-1.951 1.448a.48.48 0 0 0-.142.616c.442.803 1.228 2 2.128 2.9.901.9 2.153 1.737 3.012 2.23a.483.483 0 0 0 .644-.162l1.27-1.933a1.503 1.503 0 0 1 2.056-.332c1.407.974 3.049 2.059 4.251 3.598a1.47 1.47 0 0 1 .189 1.485c-.837 1.952-2.955 3.615-5.158 3.534Z" fill="currentColor"/></svg>